<?xml version="1.0" encoding="UTF-8" standalone="no"?>
<!-- Created with Inkscape (http://www.inkscape.org/) -->

<svg
   xmlns:dc="http://purl.org/dc/elements/1.1/"
   xmlns:cc="http://creativecommons.org/ns#"
   xmlns:rdf="http://www.w3.org/1999/02/22-rdf-syntax-ns#"
   xmlns:svg="http://www.w3.org/2000/svg"
   xmlns="http://www.w3.org/2000/svg"
   xmlns:sodipodi="http://sodipodi.sourceforge.net/DTD/sodipodi-0.dtd"
   xmlns:inkscape="http://www.inkscape.org/namespaces/inkscape"
   width="297mm"
   height="210mm"
   viewBox="0 0 1052.3622 744.09448"
   id="svg2"
   version="1.1"
   inkscape:version="0.91 r13725"
   sodipodi:docname="what'smyname.svg">
  <defs
     id="defs4" />
  <sodipodi:namedview
     id="base"
     pagecolor="#ffffff"
     bordercolor="#666666"
     borderopacity="1.0"
     inkscape:pageopacity="0.0"
     inkscape:pageshadow="2"
     inkscape:zoom="4"
     inkscape:cx="581.26432"
     inkscape:cy="613.49891"
     inkscape:document-units="mm"
     inkscape:current-layer="layer1"
     showgrid="false"
     inkscape:window-width="1920"
     inkscape:window-height="1057"
     inkscape:window-x="-8"
     inkscape:window-y="-8"
     inkscape:window-maximized="1"
     showguides="true"
     inkscape:guide-bbox="true"
     inkscape:snap-bbox="true"
     inkscape:bbox-paths="true"
     inkscape:bbox-nodes="true"
     inkscape:snap-bbox-edge-midpoints="true"
     inkscape:snap-bbox-midpoints="true"
     inkscape:object-paths="true"
     inkscape:snap-intersection-paths="true"
     inkscape:object-nodes="true"
     inkscape:snap-smooth-nodes="true"
     inkscape:snap-midpoints="true"
     inkscape:snap-nodes="true" />
  <metadata
     id="metadata7">
    <rdf:RDF>
      <cc:Work
         rdf:about="">
        <dc:format>image/svg+xml</dc:format>
        <dc:type
           rdf:resource="http://purl.org/dc/dcmitype/StillImage" />
        <dc:title></dc:title>
      </cc:Work>
    </rdf:RDF>
  </metadata>
  <g
     inkscape:label="Layer 1"
     inkscape:groupmode="layer"
     id="layer1"
     transform="translate(0,-308.26772)">
    <path
       style="fill:#00ff00;fill-opacity:1;stroke:none;stroke-width:0.03543307;stroke-miterlimit:4;stroke-dasharray:none;stroke-opacity:1"
       d="m 403.20159,842.97232 261.31891,0 c 7.36122,0 13.2874,5.946 13.2874,13.33184 l 0,106.21033 c 0,7.38584 -5.92618,13.33184 -13.2874,13.33184 l -261.31891,0 c -7.36122,0 -13.2874,-5.946 -13.2874,-13.33184 l 0,-106.21033 c 0,-7.38584 5.92618,-13.33184 13.2874,-13.33184 z"
       id="path4168" />
    <path
       style="fill:#00ff00;fill-opacity:1;stroke:none;stroke-width:0.03543307;stroke-miterlimit:4;stroke-dasharray:none;stroke-opacity:1"
       d="m 403.20159,698.09831 261.31891,0 c 7.36122,0 13.2874,5.946 13.2874,13.33184 l 0,106.21033 c 0,7.38584 -5.92618,13.33184 -13.2874,13.33184 l -261.31891,0 c -7.36122,0 -13.2874,-5.946 -13.2874,-13.33184 l 0,-106.21033 c 0,-7.38584 5.92618,-13.33184 13.2874,-13.33184 z"
       id="path4188" />
    <path
       style="fill:#00ff00;fill-opacity:1;stroke:none;stroke-width:0.03543307;stroke-miterlimit:4;stroke-dasharray:none;stroke-opacity:1"
       d="m 403.20159,557.2243 261.31891,0 c 7.36122,0 13.2874,5.946 13.2874,13.33184 l 0,106.21033 c 0,7.38584 -5.92618,13.33184 -13.2874,13.33184 l -261.31891,0 c -7.36122,0 -13.2874,-5.946 -13.2874,-13.33184 l 0,-106.21033 c 0,-7.38584 5.92618,-13.33184 13.2874,-13.33184 z"
       id="path4196" />
    <path
       style="fill:#00ff00;fill-opacity:1;stroke:none;stroke-width:0.03543307;stroke-miterlimit:4;stroke-dasharray:none;stroke-opacity:1"
       d="m 677.80789,430.95491 0,106.21032 c 0,7.3859 -5.92618,13.3319 -13.2874,13.3319 l -261.31891,0 c -7.36122,0 -13.2874,-5.946 -13.2874,-13.3319 l 0,-106.21032 0,-26.66366 0,-17.37446 c 0,-7.38582 5.92618,-13.3318 13.2874,-13.3318 l 261.31891,0 c 7.36122,0 13.2874,5.94598 13.2874,13.3318 l 0,17.37446 z"
       id="path4182" />
    <path
       style="fill:#00ff00;fill-opacity:1;stroke:none;stroke-width:0.03543307;stroke-miterlimit:4;stroke-dasharray:none;stroke-opacity:1"
       d="m 441.78566,711.32753 c 0.9815,0 1.77165,0.79016 1.77165,1.77166 l 0,13.85644 c 0,0.98149 0.79016,1.77165 1.77165,1.77165 l 177.1409,0 c 0.9815,0 1.77165,-0.79016 1.77165,-1.77165 l 0,-13.85644 c 0,-0.9815 0.79016,-1.77166 1.77165,-1.77166"
       id="path4210" />
    <path
       style="fill:#00ff00;fill-opacity:1;stroke:none;stroke-width:0.03543307;stroke-miterlimit:4;stroke-dasharray:none;stroke-opacity:1"
       d="m 429.17241,711.32751 209.37724,0 c 5.79975,0 10.46886,4.74095 10.46886,10.62993 l 0,85.15573 c 0,5.88897 -4.66911,10.62992 -10.46886,10.62992 l -209.37724,0 c -5.79975,0 -10.46886,-4.74095 -10.46886,-10.62992 l 0,-85.15573 c 0,-5.88898 4.66911,-10.62993 10.46886,-10.62993 z"
       id="path4208" />
    <path
       style="fill:#00ff00;fill-opacity:1;stroke:none;stroke-width:0.03543307;stroke-miterlimit:4;stroke-dasharray:none;stroke-opacity:1"
       d="m 641.48899,723.72906 a 4.8720474,4.8720474 0 0 1 -4.87205,4.87205 4.8720474,4.8720474 0 0 1 -4.87204,-4.87205 4.8720474,4.8720474 0 0 1 4.87204,-4.87204 4.8720474,4.8720474 0 0 1 4.87205,4.87204 z"
       id="path4206" />
    <path
       style="fill:#00ff00;fill-opacity:1;stroke:none;stroke-width:0.03543307;stroke-miterlimit:4;stroke-dasharray:none;stroke-opacity:1"
       d="m 435.97718,723.72906 a 4.8720474,4.8720474 0 0 1 -4.87205,4.87205 4.8720474,4.8720474 0 0 1 -4.87204,-4.87205 4.8720474,4.8720474 0 0 1 4.87204,-4.87204 4.8720474,4.8720474 0 0 1 4.87205,4.87204 z"
       id="path4204" />
    <path
       style="fill:#00ff00;fill-opacity:1;stroke:none;stroke-width:0.03543307;stroke-miterlimit:4;stroke-dasharray:none;stroke-opacity:1"
       d="m 641.48899,805.34149 a 4.8720474,4.8720474 0 0 1 -4.87205,4.87205 4.8720474,4.8720474 0 0 1 -4.87204,-4.87205 4.8720474,4.8720474 0 0 1 4.87204,-4.87205 4.8720474,4.8720474 0 0 1 4.87205,4.87205 z"
       id="path4202" />
    <path
       style="fill:#00ff00;fill-opacity:1;stroke:none;stroke-width:0.03543307;stroke-miterlimit:4;stroke-dasharray:none;stroke-opacity:1"
       d="m 435.97718,805.34149 a 4.8720474,4.8720474 0 0 1 -4.87205,4.87205 4.8720474,4.8720474 0 0 1 -4.87204,-4.87205 4.8720474,4.8720474 0 0 1 4.87204,-4.87205 4.8720474,4.8720474 0 0 1 4.87205,4.87205 z"
       id="path4200" />
    <path
       style="fill:#00ff00;fill-opacity:1;stroke:none;stroke-width:0.03543307;stroke-miterlimit:4;stroke-dasharray:none;stroke-opacity:1"
       d="m 427.5618,570.51172 212.59843,0 c 1.96299,0 3.54331,1.58031 3.54331,3.54331 l 0,99.21259 c 0,1.96299 -1.58032,3.54331 -3.54331,3.54331 l -212.59843,0 c -1.96299,0 -3.54331,-1.58032 -3.54331,-3.54331 l 0,-99.21259 c 0,-1.963 1.58032,-3.54331 3.54331,-3.54331 z"
       id="path4198" />
    <path
       style="fill:#00ff00;fill-opacity:1;stroke:none;stroke-width:0.03543307;stroke-miterlimit:4;stroke-dasharray:none;stroke-opacity:1"
       d="m 409.97817,623.66132 a 5.6692915,5.6692915 0 0 1 -5.66929,5.66929 5.6692915,5.6692915 0 0 1 -5.6693,-5.66929 5.6692915,5.6692915 0 0 1 5.6693,-5.6693 5.6692915,5.6692915 0 0 1 5.66929,5.6693 z"
       id="path4194" />
    <path
       style="fill:#00ff00;fill-opacity:1;stroke:none;stroke-width:0.03543307;stroke-miterlimit:4;stroke-dasharray:none;stroke-opacity:1"
       d="m 669.08247,623.66132 a 5.6692915,5.6692915 0 0 1 -5.66929,5.66929 5.6692915,5.6692915 0 0 1 -5.66929,-5.66929 5.6692915,5.6692915 0 0 1 5.66929,-5.6693 5.6692915,5.6692915 0 0 1 5.66929,5.6693 z"
       id="path4192" />
    <path
       style="fill:#00ff00;fill-opacity:1;stroke:none;stroke-width:0.03543307;stroke-miterlimit:4;stroke-dasharray:none;stroke-opacity:1"
       d="m 409.97817,764.53533 a 5.6692915,5.6692915 0 0 1 -5.66929,5.66929 5.6692915,5.6692915 0 0 1 -5.66929,-5.66929 5.6692915,5.6692915 0 0 1 5.66929,-5.6693 5.6692915,5.6692915 0 0 1 5.66929,5.6693 z"
       id="path4186" />
    <path
       style="fill:#00ff00;fill-opacity:1;stroke:none;stroke-width:0.03543307;stroke-miterlimit:4;stroke-dasharray:none;stroke-opacity:1"
       d="m 669.08247,764.53533 a 5.6692915,5.6692915 0 0 1 -5.66929,5.66929 5.6692915,5.6692915 0 0 1 -5.66929,-5.66929 5.6692915,5.6692915 0 0 1 5.66929,-5.6693 5.6692915,5.6692915 0 0 1 5.66929,5.6693 z"
       id="path4184" />
    <path
       style="fill:#00ff00;fill-opacity:1;stroke:none;stroke-width:0.03543307;stroke-miterlimit:4;stroke-dasharray:none;stroke-opacity:1"
       d="m 409.9782,484.06012 a 5.6692915,5.6692915 0 0 1 -5.66929,5.66929 5.6692915,5.6692915 0 0 1 -5.66929,-5.66929 5.6692915,5.6692915 0 0 1 5.66929,-5.66929 5.6692915,5.6692915 0 0 1 5.66929,5.66929 z"
       id="path4180" />
    <path
       style="fill:#00ff00;fill-opacity:1;stroke:none;stroke-width:0.03543307;stroke-miterlimit:4;stroke-dasharray:none;stroke-opacity:1"
       d="m 669.08247,484.06012 a 5.6692915,5.6692915 0 0 1 -5.66929,5.66929 5.6692915,5.6692915 0 0 1 -5.66929,-5.66929 5.6692915,5.6692915 0 0 1 5.66929,-5.66929 5.6692915,5.6692915 0 0 1 5.66929,5.66929 z"
       id="path4178" />
    <path
       style="fill:#00ff00;fill-opacity:1;stroke:none;stroke-width:0.03543307;stroke-miterlimit:4;stroke-dasharray:none;stroke-opacity:1"
       d="m 533.86133,383.86147 a 5.6692915,5.6692915 0 0 0 -5.66992,5.66797 l -22.67774,0 c -3.92598,0 -7.08594,3.16191 -7.08594,7.08789 0,3.92599 3.15996,7.08594 7.08594,7.08594 l 56.69336,0 c 3.92598,0 7.08789,-3.15995 7.08789,-7.08594 0,-3.92598 -3.16191,-7.08789 -7.08789,-7.08789 l -22.67578,0 a 5.6692915,5.6692915 0 0 0 -5.66992,-5.66797 z"
       id="path4176" />
    <path
       style="fill:#00ff00;fill-opacity:1;stroke:none;stroke-width:0.03543307;stroke-miterlimit:4;stroke-dasharray:none;stroke-opacity:1"
       d="m 418.48213,396.61652 a 7.0866141,7.0866141 0 0 1 -7.08661,7.08661 7.0866141,7.0866141 0 0 1 -7.08662,-7.08661 7.0866141,7.0866141 0 0 1 7.08662,-7.08662 7.0866141,7.0866141 0 0 1 7.08661,7.08662 z"
       id="path4174" />
    <path
       style="fill:#00ff00;fill-opacity:1;stroke:none;stroke-width:0.03543307;stroke-miterlimit:4;stroke-dasharray:none;stroke-opacity:1"
       d="m 663.41318,396.61652 a 7.0866141,7.0866141 0 0 1 -7.08661,7.08661 7.0866141,7.0866141 0 0 1 -7.08662,-7.08661 7.0866141,7.0866141 0 0 1 7.08662,-7.08662 7.0866141,7.0866141 0 0 1 7.08661,7.08662 z"
       id="path4172" />
    <path
       style="fill:#00ff00;fill-opacity:1;stroke:none;stroke-width:0.03543307;stroke-miterlimit:4;stroke-dasharray:none;stroke-opacity:1"
       d="m 643.70354,651.01763 c 2.94449,0 5.31496,-2.37047 5.31496,-5.31496 l 0,-44.08267 c 0,-2.94449 -2.37047,-5.31496 -5.31496,-5.31496"
       id="path4170" />
    <path
       style="fill:#00ff00;fill-opacity:1;stroke:none;stroke-width:0.03543307;stroke-miterlimit:4;stroke-dasharray:none;stroke-opacity:1"
       d="m 409.97817,909.40934 a 5.6692915,5.6692915 0 0 1 -5.66929,5.66929 5.6692915,5.6692915 0 0 1 -5.66929,-5.66929 5.6692915,5.6692915 0 0 1 5.66929,-5.6693 5.6692915,5.6692915 0 0 1 5.66929,5.6693 z"
       id="path4166" />
    <path
       style="fill:#00ff00;fill-opacity:1;stroke:none;stroke-width:0.03543307;stroke-miterlimit:4;stroke-dasharray:none;stroke-opacity:1"
       d="m 669.08247,909.40934 a 5.6692915,5.6692915 0 0 1 -5.66929,5.66929 5.6692915,5.6692915 0 0 1 -5.66929,-5.66929 5.6692915,5.6692915 0 0 1 5.66929,-5.6693 5.6692915,5.6692915 0 0 1 5.66929,5.6693 z"
       id="path4223" />
    <path
       style="fill:#00ff00;fill-opacity:1;stroke:none;stroke-width:0.03543307;stroke-miterlimit:4;stroke-dasharray:none;stroke-opacity:1"
       d="m 447.05078,430.91225 c -5.88898,0 -10.59011,4.75552 -10.6289,10.66406 l 0,20.38672 c 0,5.88898 4.73992,10.63086 10.6289,10.63086 l 76.18164,0 c 5.88898,0 10.62891,4.74188 10.62891,10.63086 l 0,43.35547 c 0,5.88898 4.73993,10.63086 10.6289,10.63086 l 76.17969,0 c 5.88898,0 10.63086,-4.75735 10.63086,-10.66602 l 0,-15.91015 7.08789,0 c 5.88898,0 10.62891,-4.74189 10.62891,-10.63086 l 0,-31.88867 c 0,-5.88898 -4.73993,-10.63086 -10.62891,-10.63086 l -7.08789,0 0,-15.90821 c 0,-5.90867 -4.74188,-10.66406 -10.63086,-10.66406 l -173.61914,0 z"
       id="path4190" />
  </g>
</svg>
